<?xml version="1.0" encoding="utf-8"?>
<!-- Generator: Adobe Illustrator 16.0.0, SVG Export Plug-In . SVG Version: 6.00 Build 0)  -->
<!DOCTYPE svg PUBLIC "-//W3C//DTD SVG 1.1//EN" "http://www.w3.org/Graphics/SVG/1.1/DTD/svg11.dtd">
<svg version="1.1" id="Capa_1" xmlns="http://www.w3.org/2000/svg" xmlns:xlink="http://www.w3.org/1999/xlink" x="0px" y="0px"
	 width="370px" height="370px" viewBox="0 0 370 370" enable-background="new 0 0 370 370" xml:space="preserve">
<g>
	<path fill="#F2F2F2" d="M205.872,281.391c0.004,0,0.006,0,0.006,0c-0.533,0.105-1.061,0.226-1.598,0.324
		c-21.155,3.906-41.971,0.354-59.724-8.789c7.439-3.832,15.452-6.693,23.881-8.423c6.09-1.251,12.396-1.903,18.859-1.903
		c15.416,0,29.954,3.726,42.774,10.338C222.606,276.776,214.489,279.644,205.872,281.391z"/>
	<path fill="#F2F2F2" d="M230.599,106.871c-12.949,6.769-27.675,10.607-43.3,10.607c-6.675,0-13.188-0.697-19.466-2.034
		c-8.422-1.779-16.421-4.697-23.843-8.578v-0.006c8.075-4.218,16.909-7.316,26.333-9.058c1.791-0.33,3.583-0.609,5.374-0.833
		c1.07-0.137,2.141-0.255,3.211-0.349c1.424-0.13,2.842-0.231,4.261-0.292c1.822-0.088,3.632-0.112,5.431-0.088
		c1.188,0.013,2.371,0.05,3.545,0.112c1.182,0.056,2.357,0.137,3.527,0.249c0.777,0.069,1.557,0.149,2.334,0.236
		c0.385,0.044,0.771,0.094,1.164,0.144c1.162,0.144,2.313,0.311,3.463,0.51c1.152,0.186,2.29,0.398,3.427,0.635
		C214.675,99.885,222.929,102.853,230.599,106.871z"/>
</g>
<path fill="#2BA5F7" d="M279.892,176.704c5.699,40.154-15.178,78.436-49.814,96.234h-0.008
	c-12.818-6.613-27.358-10.338-42.772-10.338c-15.402,0-29.928,3.72-42.742,10.326c-7.023-3.608-13.567-8.1-19.465-13.351
	l0.006-0.005c23.553-29.375,6.663-41.12,0.902-52.627c-5.753-11.509,12.952-21.581,17.269-43.16
	c4.311-21.58-28.155-33.467-28.155-33.467c7.857-9.555,17.629-17.592,28.876-23.458v0.006c12.952,6.775,27.683,10.613,43.307,10.613
	c15.627,0,30.353-3.838,43.304-10.606c10.811,5.654,20.471,13.393,28.361,22.792l-0.008,0.006
	c-7.34-1.835-15.559-1.325-23.619,2.463c-14.264,6.711-11.434,17.101-4.865,29.586c6.57,12.484,2.033,27.744-10.152,34.848
	c-4.006,2.333-7.471,5.654-9.436,10.376c-0.15,0.354-0.293,0.716-0.424,1.069c-8.104,21.755,20.777,38.32,35.732,20.566
	c4.396-5.219,8.51-11.794,10.662-19.601c2.227-8.107,6.656-15.473,13.145-20.815C273.511,185.271,277.161,181.471,279.892,176.704z"
	/>
<path fill="#2197D8" d="M181.877,272.926c-7.023-3.608-13.568-8.1-19.465-13.35C147.42,246.239,136.59,228,132.665,206.739
	c-5.214-28.236,2.85-55.855,19.769-76.422c7.857-9.555,17.63-17.592,28.877-23.458c7.619-3.979,15.919-6.946,24.749-8.734
	c-11.452-2.349-23.537-2.579-35.739-0.323c-9.424,1.741-18.258,4.84-26.332,9.058c-11.248,5.866-21.02,13.903-28.876,23.458
	c-16.921,20.565-24.982,48.187-19.769,76.422c3.925,21.261,14.755,39.502,29.746,52.837c5.897,5.251,12.442,9.742,19.465,13.351
	c17.754,9.144,38.568,12.695,59.724,8.79c0.539-0.1,1.066-0.219,1.602-0.326C197.469,279.665,189.398,276.799,181.877,272.926z"/>
<g>
	<path fill="#CCCCCC" d="M167.833,115.443c-8.423-1.779-16.422-4.697-23.843-8.578v-0.006c8.074-4.218,16.908-7.316,26.332-9.058
		c1.791-0.33,3.583-0.609,5.374-0.833c1.07-0.13,2.141-0.249,3.211-0.349c1.424-0.13,2.843-0.224,4.261-0.292
		c1.815-0.081,3.627-0.112,5.432-0.088c1.188,0.018,2.369,0.056,3.545,0.112c1.182,0.063,2.357,0.143,3.527,0.249
		c0.777,0.069,1.557,0.149,2.332,0.236c0.387,0.044,0.771,0.094,1.164,0.144c1.156,0.149,2.314,0.318,3.465,0.51
		c1.145,0.186,2.29,0.405,3.427,0.635c-8.825,1.786-17.132,4.752-24.745,8.734C176.542,109.347,172.039,112.221,167.833,115.443z"/>
	<path fill="#CCCCCC" d="M181.879,272.926c7.519,3.875,15.589,6.735,23.999,8.467c-0.533,0.105-1.063,0.225-1.598,0.322
		c-21.156,3.906-41.972,0.355-59.725-8.789c7.439-3.832,15.452-6.693,23.881-8.423C172.667,267.688,177.164,270.506,181.879,272.926
		z"/>
</g>
<path fill="#9AD14B" d="M131.112,188.766c-4.627,6.825-8.043,12.318-5.114,18.177c5.761,11.509,22.65,23.253-0.902,52.627
	l-0.006,0.007C110.099,246.239,99.268,228,95.344,206.739c-5.214-28.236,2.849-55.855,19.769-76.422c0,0,17.866,6.538,25.324,18.729
	c2.606,4.243,3.944,9.164,2.831,14.737C141.146,174.372,135.566,182.191,131.112,188.766z"/>
<path fill="#90BC42" d="M125.999,206.942c5.761,11.509,22.65,23.253-0.901,52.627l-0.007,0.007
	C110.099,246.239,99.268,228,95.343,206.739c-5.213-28.236,2.85-55.855,19.769-76.422c0,0,17.866,6.538,25.324,18.729
	c-5.896,12.168-9.2,25.686-9.324,39.719C126.483,195.591,123.068,201.084,125.999,206.942z"/>
<path fill="#9AD14B" d="M279.257,172.779c0.242,1.312,0.455,2.618,0.635,3.925c-2.732,4.767-6.381,8.565-9.896,11.459
	c-6.486,5.344-10.918,12.709-13.145,20.814c-2.152,7.808-6.264,14.383-10.664,19.601c-14.953,17.755-43.837,1.189-35.73-20.564
	c0.131-0.354,0.273-0.717,0.422-1.069c1.965-4.722,5.432-8.045,9.438-10.376c12.186-7.104,16.721-22.364,10.152-34.849
	s-9.398-22.875,4.865-29.585c8.061-3.789,16.277-4.299,23.619-2.464l0.006-0.006C269.024,141.638,276.216,156.301,279.257,172.779z"
	/>
<path fill="#333333" d="M169.476,93.213c-53.235,9.829-88.548,61.136-78.718,114.37c8.722,47.237,50.096,80.359,96.501,80.359
	c5.895,0,11.871-0.534,17.87-1.643c53.234-9.829,88.547-61.136,78.717-114.37C274.017,118.695,222.708,83.384,169.476,93.213z
	 M99.933,205.89c-4.72-25.565,2.066-50.641,16.673-69.875c7.322,3.36,24.86,12.968,22.084,26.854
	c-1.827,9.132-6.574,16.117-10.764,22.278c-5.344,7.862-10.393,15.289-6.099,23.881c1.13,2.259,2.538,4.374,4.029,6.613
	c5.938,8.92,12.062,18.127-1.325,36.942C112.195,240.292,103.329,224.272,99.933,205.89z M203.436,277.124
	c-16.471,3.042-32.738,1.306-47.37-4.221c9.925-3.743,20.39-5.638,31.235-5.638c10.865,0,21.347,1.901,31.284,5.656
	C213.751,274.737,208.688,276.155,203.436,277.124z M229.983,267.682c-13.207-6.38-27.907-9.747-42.683-9.747
	c-14.976,0-29.303,3.273-42.63,9.724c-4.637-2.544-9.043-5.493-13.158-8.812c7.472-10.267,10.875-19.513,10.359-28.157
	c-0.513-8.603-4.801-15.044-8.247-20.22c-1.326-1.992-2.58-3.874-3.45-5.614c-1.682-3.363,0.27-6.813,5.469-14.462
	c4.455-6.553,9.998-14.709,12.195-25.695c3.788-18.94-14.847-30.994-24.978-36.048c6.136-6.487,13.264-12.085,21.211-16.519
	c13.362,6.552,28.25,10.01,43.228,10.01c14.959,0,29.829-3.449,43.181-9.987c5.988,3.338,11.578,7.362,16.656,11.981
	c-4.682,0.419-9.324,1.679-13.789,3.777c-6.424,3.023-10.369,6.948-12.061,11.997c-2.59,7.722,0.898,16.09,5.053,23.984
	c5.363,10.195,1.686,22.776-8.375,28.643c-5.381,3.141-9.217,7.383-11.396,12.615c-0.172,0.412-0.334,0.826-0.486,1.234
	c-5.112,13.729,1.895,25.302,11.107,30.677c3.936,2.299,8.652,3.7,13.504,3.7c6.641,0,13.543-2.626,19.061-9.178
	c5.631-6.683,9.531-13.872,11.596-21.371c2.066-7.516,6.082-13.897,11.611-18.448c1.119-0.921,2.18-1.872,3.186-2.848
	C276.476,221.867,258.329,252.128,229.983,267.682z M275.032,175.727c-2.031,3.162-4.717,6.129-8.002,8.834
	c-7.021,5.78-12.098,13.796-14.678,23.178c-1.705,6.19-4.979,12.19-9.734,17.835c-6.473,7.683-15.207,6.65-20.723,3.431
	c-5.412-3.158-10.51-10.123-7.066-19.363c0.113-0.302,0.232-0.605,0.357-0.905c1.398-3.355,3.846-6.017,7.482-8.138
	c14.387-8.39,19.629-26.422,11.93-41.049c-3.035-5.771-5.939-12.264-4.463-16.674c0.84-2.506,3.189-4.637,7.186-6.517
	c6.141-2.888,12.688-3.735,19.027-2.49c9.061,11.155,15.535,24.659,18.324,39.758C274.8,174.326,274.919,175.027,275.032,175.727z
	 M219.243,106.88c-10.139,3.894-21.015,5.93-31.944,5.93c-10.943,0-21.831-2.042-31.98-5.944c5.048-1.945,10.341-3.459,15.851-4.476
	C187.906,99.298,204.429,101.142,219.243,106.88z"/>
<path fill="#999999" d="M316.228,149.204c-1.424-4.533-3.109-9.055-5.016-13.439c-1.023-2.365-3.773-3.448-6.137-2.422
	c-2.363,1.025-3.447,3.774-2.422,6.137c1.773,4.087,3.346,8.3,4.672,12.52c11.68,37.224,5.711,76.986-16.381,109.093
	c-24.371,35.408-63.777,54.439-103.827,54.439c-24.583,0-49.413-7.173-71.151-22.135c-27.683-19.055-46.288-47.748-52.389-80.797
	c-6.102-33.049,1.032-66.495,20.087-94.178c34.119-49.572,98.838-68.093,153.886-44.041c2.361,1.032,5.113-0.045,6.145-2.407
	c1.031-2.36-0.047-5.112-2.408-6.144c-59.14-25.841-128.662-5.947-165.309,47.3c-20.468,29.736-28.131,65.663-21.576,101.162
	c6.553,35.499,26.539,66.322,56.276,86.79c22.802,15.692,49.243,23.858,76.34,23.856c8.242,0,16.547-0.755,24.823-2.284
	c35.502-6.554,66.324-26.539,86.793-56.276C322.362,231.895,328.776,189.186,316.228,149.204z"/>
<path fill="#333333" d="M269.413,100.104l-1.775,13.222c-0.342,2.553,1.449,4.902,4.004,5.245c0.211,0.027,0.42,0.042,0.627,0.042
	c2.301,0,4.303-1.702,4.617-4.045l0.83-6.165l8.611,8.612c0.873,0.875,2.061,1.366,3.297,1.366h6.26
	c2.576,0,4.664-2.088,4.664-4.665c0-2.578-2.088-4.666-4.664-4.666h-4.324l-7.246-7.245l6.164-0.828
	c2.555-0.343,4.348-2.691,4.004-5.245c-0.342-2.555-2.699-4.346-5.246-4.004l-13.221,1.776l-9.48-9.48
	c-1.822-1.821-4.775-1.822-6.598,0s-1.822,4.776,0,6.598L269.413,100.104z"/>
<g>
	<path fill="#FFFFFF" d="M264.739,203.607c-0.184,0-0.369-0.012-0.555-0.033c-2.559-0.302-4.389-2.622-4.086-5.181
		c0.738-6.254,0.664-12.594-0.223-18.85c-0.146-1.06-0.309-2.066-0.498-3.095c-2.301-12.467-7.799-24.146-15.893-33.779
		c-6.201-7.389-13.689-13.404-22.254-17.886c-6.574-3.441-13.539-5.852-20.702-7.169c-2.531-0.466-4.209-2.898-3.744-5.432
		c0.467-2.535,2.896-4.21,5.432-3.745c8.083,1.486,15.937,4.204,23.341,8.078c9.65,5.047,18.086,11.828,25.072,20.153
		c9.131,10.863,15.33,24.034,17.924,38.084c0.217,1.17,0.4,2.313,0.563,3.496c0.998,7.034,1.082,14.187,0.248,21.238
		C269.085,201.861,267.069,203.607,264.739,203.607z"/>
	<circle fill="#FFFFFF" cx="187.51" cy="111.77" r="4.666"/>
</g>
</svg>
