<?xml version="1.0" encoding="utf-8"?>
<!-- Generator: Adobe Illustrator 16.0.0, SVG Export Plug-In . SVG Version: 6.00 Build 0)  -->
<!DOCTYPE svg PUBLIC "-//W3C//DTD SVG 1.1//EN" "http://www.w3.org/Graphics/SVG/1.1/DTD/svg11.dtd">
<svg version="1.1" id="Capa_1" xmlns="http://www.w3.org/2000/svg" xmlns:xlink="http://www.w3.org/1999/xlink" x="0px" y="0px"
	 width="190px" height="179px" viewBox="-25.5 -11.5 190 179" enable-background="new -25.5 -11.5 190 179" xml:space="preserve">
<g>
	<title>servicio-2</title>
	<ellipse fill="#FF8000" cx="72.909" cy="75.586" rx="80.309" ry="75"/>
	<path fill="#FFFFFF" d="M60.375,78.931V67.463c-0.045-0.519,0.14-1.044,0.512-1.43l1.535-0.48h0.765v-3.817
		c0.017-5.016,4.376-9.07,9.746-9.058c5.35,0.013,9.681,4.063,9.692,9.058v3.817h0.77l1.536,0.48
		c0.373,0.386,0.558,0.909,0.507,1.43v11.704c0.049,0.521-0.134,1.046-0.507,1.434l-1.536,0.481H62.679l-1.535-0.481
		C60.561,80.234,60.256,79.578,60.375,78.931z M67.282,65.313h10.997v-3.817c0.021-1.342-0.53-2.628-1.534-3.583
		c-1.008-0.964-2.398-1.481-3.836-1.435c-1.433-0.021-2.816,0.497-3.837,1.435c-1.031,0.939-1.586,2.239-1.534,3.583v3.817l0,0
		H67.282z"/>
	<path fill="#FFFFFF" d="M26.619,96.845V47.879c0.028-1.889,0.857-3.69,2.298-5.018c1.401-1.369,3.343-2.146,5.374-2.146h76.982
		c2.021,0.026,3.953,0.799,5.37,2.146c1.47,1.311,2.302,3.122,2.302,5.018v48.965c-0.025,1.893-0.856,3.695-2.302,5.017
		c-1.402,1.37-3.338,2.15-5.37,2.15H85.185c0.038,1.149,0.299,2.28,0.768,3.343l1.534,3.102c0.385,0.588,0.641,1.236,0.768,1.916
		c0,1.578-1.372,2.864-3.071,2.864H60.375c-1.689,0-3.068-1.287-3.068-2.864c0.12-0.678,0.381-1.331,0.768-1.916l1.535-3.102
		c0.493-1.141,0.751-2.357,0.764-3.585H34.291c-2.025-0.025-3.956-0.798-5.371-2.149C27.509,100.375,26.685,98.656,26.619,96.845z
		 M32.752,85.38c0.036,0.365,0.219,0.71,0.512,0.953l1.025,0.481h76.984l1.023-0.481c0.297-0.243,0.479-0.586,0.509-0.953V48.118
		c-0.031-0.362-0.212-0.713-0.509-0.957l-1.023-0.476H34.291l-1.025,0.476c-0.293,0.244-0.478,0.593-0.512,0.957V85.38H32.752z"/>
</g>
</svg>
