<?xml version="1.0" encoding="utf-8"?>
<!-- Generator: Adobe Illustrator 16.0.0, SVG Export Plug-In . SVG Version: 6.00 Build 0)  -->
<!DOCTYPE svg PUBLIC "-//W3C//DTD SVG 1.1//EN" "http://www.w3.org/Graphics/SVG/1.1/DTD/svg11.dtd">
<svg version="1.1" id="Capa_1" xmlns="http://www.w3.org/2000/svg" xmlns:xlink="http://www.w3.org/1999/xlink" x="0px" y="0px"
	 width="166px" height="170.5px" viewBox="-8.5 0 166 170.5" enable-background="new -8.5 0 166 170.5" xml:space="preserve">
<g>
	<circle fill="#FF8000" cx="75.54" cy="85.405" r="75"/>
	<path fill="#FFFFFF" d="M34.541,89.506v-7.959c-0.131-0.304-0.131-0.66,0-0.964l0.482-0.481l6.757-0.964
		c0.397-1.161,0.883-2.293,1.446-3.379l-3.857-5.063c-0.178-0.29-0.263-0.626-0.245-0.966c-0.059-0.341,0.031-0.694,0.245-0.963
		l3.618-3.861c0.884-1.153,2.045-2.064,3.375-2.649h0.966l5.063,3.855l3.379-1.448c0.2-2.426,0.522-4.838,0.965-7.23
		c0.089-0.733,0.544-1.369,1.208-1.689h8.198c0.384,0.252,0.715,0.582,0.966,0.966c0.279,0.347,0.448,0.765,0.483,1.208l0.964,6.75
		l3.377,1.448l5.063-3.855h1.687c4.1,3.855,6.271,6.028,6.271,6.992c0.018,0.338-0.063,0.671-0.242,0.963l-1.93,2.412l-1.927,2.653
		l1.447,3.617l6.511,0.966l0.965,0.483c0.251,0.268,0.42,0.602,0.481,0.961v7.958c-0.076,0.359-0.237,0.692-0.481,0.971
		l-0.965,0.479l-6.753,0.965c-0.392,1.163-0.875,2.295-1.446,3.375l3.859,5.068c0.194,0.282,0.275,0.626,0.242,0.963
		c0.061,0.346-0.027,0.692-0.242,0.963l-3.618,3.86c-0.886,1.153-2.047,2.069-3.376,2.655h-0.967l-5.064-3.86l-3.373,1.443
		c-0.247,3.142-0.728,5.793-0.968,7.241c-0.122,0.657-0.582,1.207-1.208,1.445h-7.956c-0.403-0.231-0.732-0.563-0.967-0.966
		c-0.25-0.269-0.417-0.602-0.484-0.965l-0.961-6.753l-3.379-1.446l-5.063,3.86h-1.688c-4.103-3.86-6.273-6.028-6.273-6.991
		c-0.018-0.341,0.067-0.676,0.245-0.969l1.684-2.166l1.932-2.655c-0.59-1.157-1.073-2.369-1.448-3.62l-6.514-0.961l-0.482-0.483
		C34.388,90.35,34.479,89.904,34.541,89.506z M53.836,77.686c-4.26,4.405-4.147,11.425,0.257,15.687
		c4.406,4.259,11.428,4.146,15.684-0.261c4.263-4.399,4.149-11.422-0.256-15.686c-2.132-2.063-5.004-3.181-7.967-3.118
		c-2.834,0.134-5.509,1.339-7.48,3.377H53.836z M89.768,67.801c-4.338-0.482-6.993-0.966-6.993-1.445v-6.028
		c0-0.482,2.655-0.968,6.993-1.448c0.492-0.778,1.057-1.501,1.689-2.169c-1.043-1.882-1.772-3.917-2.171-6.031h0.239l1.448-0.967
		l2.651-1.445l1.207-0.726c0.776,0.495,1.438,1.153,1.928,1.932l2.172,2.893h2.651c1.253-1.701,2.62-3.313,4.102-4.825h0.238
		l5.307,2.895h0.241c-0.441,2.102-1.17,4.129-2.17,6.031c0.405,0.684,0.728,1.412,0.965,2.167c4.344,0.481,6.032,0.968,6.032,1.449
		v6.029c0,0.481-1.687,0.963-6.032,1.448c-0.325,0.759-0.734,1.49-1.206,2.168c1.06,1.902,1.869,3.922,2.411,6.03h-0.241
		l-5.307,3.132c-0.774-0.491-1.436-1.148-1.929-1.926l-2.169-2.894h-2.651l-2.172,2.894c-0.494,0.778-1.152,1.436-1.925,1.926
		l-5.308-3.132h-0.242c0.282-2.107,0.938-4.147,1.93-6.03l-1.446-2.168l0,0L89.768,67.801z M89.768,112.174
		c-4.338-0.481-6.993-0.963-6.993-1.448v-6.029c0-0.48,2.655-0.964,6.993-1.445c0.492-0.776,1.057-1.501,1.689-2.17
		c-1.043-1.886-1.772-3.916-2.171-6.029h0.239l1.448-0.967l2.651-1.448l1.207-0.72c0.776,0.496,1.438,1.151,1.928,1.93l2.172,2.894
		h2.651c1.253-1.705,2.62-3.313,4.102-4.823h0.238l5.307,2.893h0.241c-0.441,2.099-1.17,4.13-2.17,6.03
		c0.405,0.685,0.728,1.413,0.965,2.168c4.344,0.479,6.032,0.967,6.032,1.45v6.027c0,0.483-1.687,0.964-6.032,1.445
		c-0.325,0.765-0.734,1.488-1.206,2.17c1.06,1.9,1.869,3.926,2.411,6.033h-0.241l-5.307,3.133c-0.774-0.494-1.436-1.153-1.929-1.93
		l-2.169-2.894h-2.651l-2.172,2.894c-0.494,0.776-1.152,1.437-1.925,1.93l-5.308-3.133h-0.242c0.282-2.111,0.938-4.151,1.93-6.033
		l-1.446-2.17l0,0L89.768,112.174z M95.075,63.462c-0.071,3.06,2.355,5.6,5.417,5.666c3.064,0.073,5.601-2.355,5.67-5.417
		c0.072-3.062-2.354-5.601-5.418-5.67c-1.482-0.036-2.918,0.524-3.984,1.558c-1.014,0.943-1.614,2.239-1.685,3.62V63.462z
		 M95.075,107.829c-0.071,3.066,2.355,5.601,5.417,5.674c3.064,0.07,5.601-2.356,5.67-5.418c0.072-3.065-2.354-5.601-5.418-5.671
		c-1.482-0.034-2.918,0.525-3.984,1.561c-1.014,0.938-1.614,2.235-1.685,3.618V107.829z"/>
</g>
</svg>
