<?xml version="1.0" encoding="utf-8"?>
<!-- Generator: Adobe Illustrator 16.0.0, SVG Export Plug-In . SVG Version: 6.00 Build 0)  -->
<!DOCTYPE svg PUBLIC "-//W3C//DTD SVG 1.1//EN" "http://www.w3.org/Graphics/SVG/1.1/DTD/svg11.dtd">
<svg version="1.1" id="Capa_1" xmlns="http://www.w3.org/2000/svg" xmlns:xlink="http://www.w3.org/1999/xlink" x="0px" y="0px"
	 width="184px" height="180px" viewBox="-20.5 -8.5 184 180" enable-background="new -20.5 -8.5 184 180" xml:space="preserve">
<g>
	<g>
		<circle fill="#FF8000" cx="74.74" cy="84.649" r="75"/>
	</g>
	<path fill="#FFFFFF" d="M63.034,97.07V85.368c-0.043-0.522,0.129-1.046,0.48-1.438l1.435-0.477h0.716v-3.819
		c0.016-5.015,4.086-9.066,9.099-9.059c4.995,0.015,9.04,4.063,9.055,9.059v3.819h0.716l1.435,0.477
		c0.352,0.392,0.52,0.913,0.476,1.438V97.07c0.044,0.521-0.124,1.04-0.476,1.432l-1.435,0.478H64.949l-1.435-0.478
		C63.137,98.129,62.959,97.598,63.034,97.07z M69.486,83.454h10.272v-3.819c0.018-1.338-0.498-2.627-1.436-3.581
		c-0.938-0.962-2.24-1.485-3.58-1.437c-1.339-0.018-2.628,0.497-3.583,1.437c-0.958,0.939-1.479,2.237-1.433,3.581v3.819l0,0H69.486
		z"/>
	<path fill="#FFFFFF" d="M28.641,103.997c-2.696-6.176-4.078-12.843-4.06-19.587c0.03-6.732,1.411-13.392,4.06-19.585
		c2.575-5.943,6.216-11.368,10.749-16c4.573-4.605,10.01-8.255,16.002-10.75c6.176-2.696,12.849-4.079,19.587-4.061
		c6.732,0.032,13.393,1.414,19.581,4.061c5.947,2.576,11.373,6.219,16.003,10.75c4.605,4.573,8.257,10.008,10.751,16
		c2.693,6.182,4.073,12.85,4.061,19.585c-0.03,6.736-1.413,13.396-4.061,19.587c-2.575,5.949-6.217,11.369-10.751,16.005
		c-9.51,9.302-22.279,14.529-35.584,14.572c-6.736-0.035-13.397-1.414-19.587-4.062c-5.947-2.578-11.372-6.221-16.003-10.75
		C34.849,115.227,31.202,109.88,28.641,103.997z M37,64.108c-6.751,12.696-6.751,27.913,0,40.604l10.75-10.746
		c-1.057-2.998-1.622-6.142-1.674-9.314c0.041-3.177,0.605-6.326,1.674-9.316L37,64.345l0,0V64.108z M59.933,69.126
		c-8.312,8.477-8.177,22.088,0.302,30.397c8.477,8.313,22.088,8.174,30.399-0.302c8.313-8.479,8.176-22.087-0.304-30.399
		c-4.032-3.954-9.463-6.163-15.112-6.144C69.448,62.612,63.911,64.947,59.933,69.126L59.933,69.126z M54.914,46.195l10.749,10.749
		c2.995-1.058,6.139-1.624,9.318-1.673c3.173,0.04,6.322,0.606,9.314,1.673l10.986-10.749c-12.733-6.677-27.953-6.589-40.604,0.242
		L54.914,46.195z M54.914,122.39c12.694,6.751,27.917,6.751,40.607,0l-10.75-10.75c-2.993,1.057-6.138,1.624-9.313,1.676
		c-3.178-0.04-6.326-0.606-9.317-1.676L54.914,122.39z M102.447,93.727l10.749,10.748c6.753-12.694,6.753-27.914,0-40.604
		l-10.749,10.746c2.09,6.213,2.004,12.953-0.237,19.109h0.237V93.727z"/>
</g>
</svg>
